<?xml version="1.0" encoding="UTF-8"?><svg xmlns="http://www.w3.org/2000/svg" xmlns:xlink="http://www.w3.org/1999/xlink" clip-rule="evenodd" stroke-miterlimit="4.00" viewBox="0 0 914 75"><desc>SVG generated by Keynote</desc><defs></defs><g transform="matrix(1.00, 0.00, -0.00, -1.00, 0.0, 75.0)"><text xml:space="preserve" font-family="Helvetica-Light" font-size="33.0" fill="#FEFFFF" transform="matrix(1.00, 0.00, -0.00, -1.00, -1.0, 49.0)">P</text><text xml:space="preserve" font-family="Helvetica-Light" font-size="33.0" fill="#FEFFFF" transform="matrix(1.00, 0.00, -0.00, -1.00, 19.2, 49.0)">e</text><text xml:space="preserve" font-family="Helvetica-Light" font-size="33.0" fill="#FEFFFF" transform="matrix(1.00, 0.00, -0.00, -1.00, 37.5, 49.0)">r</text><text xml:space="preserve" font-family="Helvetica-Light" font-size="33.0" fill="#FEFFFF" transform="matrix(1.00, 0.00, -0.00, -1.00, 49.1, 49.0)">f</text><text xml:space="preserve" font-family="Helvetica-Light" font-size="33.0" fill="#FEFFFF" transform="matrix(1.00, 0.00, -0.00, -1.00, 58.3, 49.0)">e</text><text xml:space="preserve" font-family="Helvetica-Light" font-size="33.0" fill="#FEFFFF" transform="matrix(1.00, 0.00, -0.00, -1.00, 76.6, 49.0)">c</text><text xml:space="preserve" font-family="Helvetica-Light" font-size="33.0" fill="#FEFFFF" transform="matrix(1.00, 0.00, -0.00, -1.00, 95.0, 49.0)">t</text><text xml:space="preserve" font-family="Helvetica-Light" font-size="33.0" fill="#FEFFFF" transform="matrix(1.00, 0.00, -0.00, -1.00, 104.1, 49.0)">,</text><text xml:space="preserve" font-family="Helvetica-Light" font-size="33.0" fill="#FEFFFF" transform="matrix(1.00, 0.00, -0.00, -1.00, 113.3, 49.0)"> </text><text xml:space="preserve" font-family="Helvetica-Light" font-size="33.0" fill="#FEFFFF" transform="matrix(1.00, 0.00, -0.00, -1.00, 122.5, 49.0)">A</text><text xml:space="preserve" font-family="Helvetica-Light" font-size="33.0" fill="#FEFFFF" transform="matrix(1.00, 0.00, -0.00, -1.00, 144.5, 49.0)">m</text><text xml:space="preserve" font-family="Helvetica-Light" font-size="33.0" fill="#FEFFFF" transform="matrix(1.00, 0.00, -0.00, -1.00, 172.0, 49.0)">y</text><text xml:space="preserve" font-family="Helvetica-Light" font-size="33.0" fill="#FEFFFF" transform="matrix(1.00, 0.00, -0.00, -1.00, 188.5, 49.0)"> </text><text xml:space="preserve" font-family="Helvetica-Light" font-size="33.0" fill="#FEFFFF" transform="matrix(1.00, 0.00, -0.00, -1.00, 197.7, 49.0)">a</text><text xml:space="preserve" font-family="Helvetica-Light" font-size="33.0" fill="#FEFFFF" transform="matrix(1.00, 0.00, -0.00, -1.00, 216.0, 49.0)">c</text><text xml:space="preserve" font-family="Helvetica-Light" font-size="33.0" fill="#FEFFFF" transform="matrix(1.00, 0.00, -0.00, -1.00, 234.4, 49.0)">c</text><text xml:space="preserve" font-family="Helvetica-Light" font-size="33.0" fill="#FEFFFF" transform="matrix(1.00, 0.00, -0.00, -1.00, 252.7, 49.0)">e</text><text xml:space="preserve" font-family="Helvetica-Light" font-size="33.0" fill="#FEFFFF" transform="matrix(1.00, 0.00, -0.00, -1.00, 271.1, 49.0)">p</text><text xml:space="preserve" font-family="Helvetica-Light" font-size="33.0" fill="#FEFFFF" transform="matrix(1.00, 0.00, -0.00, -1.00, 291.2, 49.0)">t</text><text xml:space="preserve" font-family="Helvetica-Light" font-size="33.0" fill="#FEFFFF" transform="matrix(1.00, 0.00, -0.00, -1.00, 300.4, 49.0)">e</text><text xml:space="preserve" font-family="Helvetica-Light" font-size="33.0" fill="#FEFFFF" transform="matrix(1.00, 0.00, -0.00, -1.00, 318.7, 49.0)">d</text><text xml:space="preserve" font-family="Helvetica-Light" font-size="33.0" fill="#FEFFFF" transform="matrix(1.00, 0.00, -0.00, -1.00, 338.9, 49.0)"> </text><text xml:space="preserve" font-family="Helvetica-Light" font-size="33.0" fill="#FEFFFF" transform="matrix(1.00, 0.00, -0.00, -1.00, 348.1, 49.0)">J</text><text xml:space="preserve" font-family="Helvetica-Light" font-size="33.0" fill="#FEFFFF" transform="matrix(1.00, 0.00, -0.00, -1.00, 364.6, 49.0)">e</text><text xml:space="preserve" font-family="Helvetica-Light" font-size="33.0" fill="#FEFFFF" transform="matrix(1.00, 0.00, -0.00, -1.00, 382.9, 49.0)">r</text><text xml:space="preserve" font-family="Helvetica-Light" font-size="33.0" fill="#FEFFFF" transform="matrix(1.00, 0.00, -0.00, -1.00, 393.3, 49.0)">e</text><text xml:space="preserve" font-family="Helvetica-Light" font-size="33.0" fill="#FEFFFF" transform="matrix(1.00, 0.00, -0.00, -1.00, 411.7, 49.0)">m</text><text xml:space="preserve" font-family="Helvetica-Light" font-size="33.0" fill="#FEFFFF" transform="matrix(1.00, 0.00, -0.00, -1.00, 439.2, 49.0)">y</text><text xml:space="preserve" font-family="Helvetica-Light" font-size="33.0" fill="#FEFFFF" transform="matrix(1.00, 0.00, -0.00, -1.00, 455.7, 49.0)">’</text><text xml:space="preserve" font-family="Helvetica-Light" font-size="33.0" fill="#FEFFFF" transform="matrix(1.00, 0.00, -0.00, -1.00, 460.5, 49.0)">s</text><text xml:space="preserve" font-family="Helvetica-Light" font-size="33.0" fill="#FEFFFF" transform="matrix(1.00, 0.00, -0.00, -1.00, 477.0, 49.0)"> </text><text xml:space="preserve" font-family="Helvetica-Light" font-size="33.0" fill="#FEFFFF" transform="matrix(1.00, 0.00, -0.00, -1.00, 486.2, 49.0)">c</text><text xml:space="preserve" font-family="Helvetica-Light" font-size="33.0" fill="#FEFFFF" transform="matrix(1.00, 0.00, -0.00, -1.00, 504.6, 49.0)">o</text><text xml:space="preserve" font-family="Helvetica-Light" font-size="33.0" fill="#FEFFFF" transform="matrix(1.00, 0.00, -0.00, -1.00, 522.9, 49.0)">n</text><text xml:space="preserve" font-family="Helvetica-Light" font-size="33.0" fill="#FEFFFF" transform="matrix(1.00, 0.00, -0.00, -1.00, 541.3, 49.0)">f</text><text xml:space="preserve" font-family="Helvetica-Light" font-size="33.0" fill="#FEFFFF" transform="matrix(1.00, 0.00, -0.00, -1.00, 550.4, 49.0)">e</text><text xml:space="preserve" font-family="Helvetica-Light" font-size="33.0" fill="#FEFFFF" transform="matrix(1.00, 0.00, -0.00, -1.00, 568.8, 49.0)">s</text><text xml:space="preserve" font-family="Helvetica-Light" font-size="33.0" fill="#FEFFFF" transform="matrix(1.00, 0.00, -0.00, -1.00, 585.3, 49.0)">s</text><text xml:space="preserve" font-family="Helvetica-Light" font-size="33.0" fill="#FEFFFF" transform="matrix(1.00, 0.00, -0.00, -1.00, 601.8, 49.0)">i</text><text xml:space="preserve" font-family="Helvetica-Light" font-size="33.0" fill="#FEFFFF" transform="matrix(1.00, 0.00, -0.00, -1.00, 609.1, 49.0)">o</text><text xml:space="preserve" font-family="Helvetica-Light" font-size="33.0" fill="#FEFFFF" transform="matrix(1.00, 0.00, -0.00, -1.00, 627.5, 49.0)">n</text><text xml:space="preserve" font-family="Helvetica-Light" font-size="33.0" fill="#FEFFFF" transform="matrix(1.00, 0.00, -0.00, -1.00, 645.8, 49.0)">,</text><text xml:space="preserve" font-family="Helvetica-Light" font-size="33.0" fill="#FEFFFF" transform="matrix(1.00, 0.00, -0.00, -1.00, 655.0, 49.0)"> </text><text xml:space="preserve" font-family="Helvetica-Light" font-size="33.0" fill="#FEFFFF" transform="matrix(1.00, 0.00, -0.00, -1.00, 664.1, 49.0)">J</text><text xml:space="preserve" font-family="Helvetica-Light" font-size="33.0" fill="#FEFFFF" transform="matrix(1.00, 0.00, -0.00, -1.00, 680.6, 49.0)">e</text><text xml:space="preserve" font-family="Helvetica-Light" font-size="33.0" fill="#FEFFFF" transform="matrix(1.00, 0.00, -0.00, -1.00, 699.0, 49.0)">r</text><text xml:space="preserve" font-family="Helvetica-Light" font-size="33.0" fill="#FEFFFF" transform="matrix(1.00, 0.00, -0.00, -1.00, 709.4, 49.0)">e</text><text xml:space="preserve" font-family="Helvetica-Light" font-size="33.0" fill="#FEFFFF" transform="matrix(1.00, 0.00, -0.00, -1.00, 727.7, 49.0)">m</text><text xml:space="preserve" font-family="Helvetica-Light" font-size="33.0" fill="#FEFFFF" transform="matrix(1.00, 0.00, -0.00, -1.00, 755.2, 49.0)">y</text><text xml:space="preserve" font-family="Helvetica-Light" font-size="33.0" fill="#FEFFFF" transform="matrix(1.00, 0.00, -0.00, -1.00, 771.7, 49.0)"> </text><text xml:space="preserve" font-family="Helvetica-Light" font-size="33.0" fill="#FEFFFF" transform="matrix(1.00, 0.00, -0.00, -1.00, 780.9, 49.0)">w</text><text xml:space="preserve" font-family="Helvetica-Light" font-size="33.0" fill="#FEFFFF" transform="matrix(1.00, 0.00, -0.00, -1.00, 804.7, 49.0)">a</text><text xml:space="preserve" font-family="Helvetica-Light" font-size="33.0" fill="#FEFFFF" transform="matrix(1.00, 0.00, -0.00, -1.00, 823.1, 49.0)">s</text><text xml:space="preserve" font-family="Helvetica-Light" font-size="33.0" fill="#FEFFFF" transform="matrix(1.00, 0.00, -0.00, -1.00, 839.6, 49.0)"> </text><text xml:space="preserve" font-family="Helvetica-Light" font-size="33.0" fill="#FEFFFF" transform="matrix(1.00, 0.00, -0.00, -1.00, 848.7, 49.0)">v</text><text xml:space="preserve" font-family="Helvetica-Light" font-size="33.0" fill="#FEFFFF" transform="matrix(1.00, 0.00, -0.00, -1.00, 865.2, 49.0)">e</text><text xml:space="preserve" font-family="Helvetica-Light" font-size="33.0" fill="#FEFFFF" transform="matrix(1.00, 0.00, -0.00, -1.00, 883.6, 49.0)">r</text><text xml:space="preserve" font-family="Helvetica-Light" font-size="33.0" fill="#FEFFFF" transform="matrix(1.00, 0.00, -0.00, -1.00, 895.2, 49.0)">y</text><text xml:space="preserve" font-family="Helvetica-Light" font-size="33.0" fill="#FEFFFF" transform="matrix(1.00, 0.00, -0.00, -1.00, 911.7, 49.0)"> </text><text xml:space="preserve" font-family="Helvetica-Light" font-size="33.0" fill="#FEFFFF" transform="matrix(1.00, 0.00, -0.00, -1.00, -1.0, 9.0)">h</text><text xml:space="preserve" font-family="Helvetica-Light" font-size="33.0" fill="#FEFFFF" transform="matrix(1.00, 0.00, -0.00, -1.00, 17.3, 9.0)">a</text><text xml:space="preserve" font-family="Helvetica-Light" font-size="33.0" fill="#FEFFFF" transform="matrix(1.00, 0.00, -0.00, -1.00, 35.7, 9.0)">p</text><text xml:space="preserve" font-family="Helvetica-Light" font-size="33.0" fill="#FEFFFF" transform="matrix(1.00, 0.00, -0.00, -1.00, 55.9, 9.0)">p</text><text xml:space="preserve" font-family="Helvetica-Light" font-size="33.0" fill="#FEFFFF" transform="matrix(1.00, 0.00, -0.00, -1.00, 76.0, 9.0)">y</text><text xml:space="preserve" font-family="Helvetica-Light" font-size="33.0" fill="#FEFFFF" transform="matrix(1.00, 0.00, -0.00, -1.00, 92.5, 9.0)"> </text><text xml:space="preserve" font-family="Helvetica-Light" font-size="33.0" fill="#FEFFFF" transform="matrix(1.00, 0.00, -0.00, -1.00, 101.7, 9.0)">t</text><text xml:space="preserve" font-family="Helvetica-Light" font-size="33.0" fill="#FEFFFF" transform="matrix(1.00, 0.00, -0.00, -1.00, 110.9, 9.0)">h</text><text xml:space="preserve" font-family="Helvetica-Light" font-size="33.0" fill="#FEFFFF" transform="matrix(1.00, 0.00, -0.00, -1.00, 129.2, 9.0)">a</text><text xml:space="preserve" font-family="Helvetica-Light" font-size="33.0" fill="#FEFFFF" transform="matrix(1.00, 0.00, -0.00, -1.00, 147.6, 9.0)">t</text><text xml:space="preserve" font-family="Helvetica-Light" font-size="33.0" fill="#FEFFFF" transform="matrix(1.00, 0.00, -0.00, -1.00, 156.7, 9.0)"> </text><text xml:space="preserve" font-family="Helvetica-Light" font-size="33.0" fill="#FEFFFF" transform="matrix(1.00, 0.00, -0.00, -1.00, 165.9, 9.0)">h</text><text xml:space="preserve" font-family="Helvetica-Light" font-size="33.0" fill="#FEFFFF" transform="matrix(1.00, 0.00, -0.00, -1.00, 184.3, 9.0)">e</text><text xml:space="preserve" font-family="Helvetica-Light" font-size="33.0" fill="#FEFFFF" transform="matrix(1.00, 0.00, -0.00, -1.00, 202.6, 9.0)"> </text><text xml:space="preserve" font-family="Helvetica-Light" font-size="33.0" fill="#FEFFFF" transform="matrix(1.00, 0.00, -0.00, -1.00, 211.8, 9.0)">c</text><text xml:space="preserve" font-family="Helvetica-Light" font-size="33.0" fill="#FEFFFF" transform="matrix(1.00, 0.00, -0.00, -1.00, 230.1, 9.0)">o</text><text xml:space="preserve" font-family="Helvetica-Light" font-size="33.0" fill="#FEFFFF" transform="matrix(1.00, 0.00, -0.00, -1.00, 248.5, 9.0)">u</text><text xml:space="preserve" font-family="Helvetica-Light" font-size="33.0" fill="#FEFFFF" transform="matrix(1.00, 0.00, -0.00, -1.00, 266.8, 9.0)">l</text><text xml:space="preserve" font-family="Helvetica-Light" font-size="33.0" fill="#FEFFFF" transform="matrix(1.00, 0.00, -0.00, -1.00, 274.2, 9.0)">d</text><text xml:space="preserve" font-family="Helvetica-Light" font-size="33.0" fill="#FEFFFF" transform="matrix(1.00, 0.00, -0.00, -1.00, 294.3, 9.0)"> </text><text xml:space="preserve" font-family="Helvetica-Light" font-size="33.0" fill="#FEFFFF" transform="matrix(1.00, 0.00, -0.00, -1.00, 303.5, 9.0)">ﬁ</text><text xml:space="preserve" font-family="Helvetica-Light" font-size="33.0" fill="#FEFFFF" transform="matrix(1.00, 0.00, -0.00, -1.00, 320.0, 9.0)">n</text><text xml:space="preserve" font-family="Helvetica-Light" font-size="33.0" fill="#FEFFFF" transform="matrix(1.00, 0.00, -0.00, -1.00, 338.3, 9.0)">a</text><text xml:space="preserve" font-family="Helvetica-Light" font-size="33.0" fill="#FEFFFF" transform="matrix(1.00, 0.00, -0.00, -1.00, 356.7, 9.0)">l</text><text xml:space="preserve" font-family="Helvetica-Light" font-size="33.0" fill="#FEFFFF" transform="matrix(1.00, 0.00, -0.00, -1.00, 364.0, 9.0)">l</text><text xml:space="preserve" font-family="Helvetica-Light" font-size="33.0" fill="#FEFFFF" transform="matrix(1.00, 0.00, -0.00, -1.00, 371.3, 9.0)">y</text><text xml:space="preserve" font-family="Helvetica-Light" font-size="33.0" fill="#FEFFFF" transform="matrix(1.00, 0.00, -0.00, -1.00, 387.8, 9.0)"> </text><text xml:space="preserve" font-family="Helvetica-Light" font-size="33.0" fill="#FEFFFF" transform="matrix(1.00, 0.00, -0.00, -1.00, 397.0, 9.0)">g</text><text xml:space="preserve" font-family="Helvetica-Light" font-size="33.0" fill="#FEFFFF" transform="matrix(1.00, 0.00, -0.00, -1.00, 417.2, 9.0)">e</text><text xml:space="preserve" font-family="Helvetica-Light" font-size="33.0" fill="#FEFFFF" transform="matrix(1.00, 0.00, -0.00, -1.00, 435.5, 9.0)">t</text><text xml:space="preserve" font-family="Helvetica-Light" font-size="33.0" fill="#FEFFFF" transform="matrix(1.00, 0.00, -0.00, -1.00, 444.7, 9.0)"> </text><text xml:space="preserve" font-family="Helvetica-Light" font-size="33.0" fill="#FEFFFF" transform="matrix(1.00, 0.00, -0.00, -1.00, 453.9, 9.0)">t</text><text xml:space="preserve" font-family="Helvetica-Light" font-size="33.0" fill="#FEFFFF" transform="matrix(1.00, 0.00, -0.00, -1.00, 463.0, 9.0)">o</text><text xml:space="preserve" font-family="Helvetica-Light" font-size="33.0" fill="#FEFFFF" transform="matrix(1.00, 0.00, -0.00, -1.00, 481.4, 9.0)">g</text><text xml:space="preserve" font-family="Helvetica-Light" font-size="33.0" fill="#FEFFFF" transform="matrix(1.00, 0.00, -0.00, -1.00, 501.6, 9.0)">e</text><text xml:space="preserve" font-family="Helvetica-Light" font-size="33.0" fill="#FEFFFF" transform="matrix(1.00, 0.00, -0.00, -1.00, 519.9, 9.0)">t</text><text xml:space="preserve" font-family="Helvetica-Light" font-size="33.0" fill="#FEFFFF" transform="matrix(1.00, 0.00, -0.00, -1.00, 529.1, 9.0)">h</text><text xml:space="preserve" font-family="Helvetica-Light" font-size="33.0" fill="#FEFFFF" transform="matrix(1.00, 0.00, -0.00, -1.00, 547.4, 9.0)">e</text><text xml:space="preserve" font-family="Helvetica-Light" font-size="33.0" fill="#FEFFFF" transform="matrix(1.00, 0.00, -0.00, -1.00, 565.8, 9.0)">r</text><text xml:space="preserve" font-family="Helvetica-Light" font-size="33.0" fill="#FEFFFF" transform="matrix(1.00, 0.00, -0.00, -1.00, 576.8, 9.0)"> </text><text xml:space="preserve" font-family="Helvetica-Light" font-size="33.0" fill="#FEFFFF" transform="matrix(1.00, 0.00, -0.00, -1.00, 585.9, 9.0)">w</text><text xml:space="preserve" font-family="Helvetica-Light" font-size="33.0" fill="#FEFFFF" transform="matrix(1.00, 0.00, -0.00, -1.00, 609.8, 9.0)">i</text><text xml:space="preserve" font-family="Helvetica-Light" font-size="33.0" fill="#FEFFFF" transform="matrix(1.00, 0.00, -0.00, -1.00, 617.1, 9.0)">t</text><text xml:space="preserve" font-family="Helvetica-Light" font-size="33.0" fill="#FEFFFF" transform="matrix(1.00, 0.00, -0.00, -1.00, 626.3, 9.0)">h</text><text xml:space="preserve" font-family="Helvetica-Light" font-size="33.0" fill="#FEFFFF" transform="matrix(1.00, 0.00, -0.00, -1.00, 644.6, 9.0)"> </text><text xml:space="preserve" font-family="Helvetica-Light" font-size="33.0" fill="#FEFFFF" transform="matrix(1.00, 0.00, -0.00, -1.00, 653.8, 9.0)">A</text><text xml:space="preserve" font-family="Helvetica-Light" font-size="33.0" fill="#FEFFFF" transform="matrix(1.00, 0.00, -0.00, -1.00, 675.8, 9.0)">m</text><text xml:space="preserve" font-family="Helvetica-Light" font-size="33.0" fill="#FEFFFF" transform="matrix(1.00, 0.00, -0.00, -1.00, 703.3, 9.0)">y</text><text xml:space="preserve" font-family="Helvetica-Light" font-size="33.0" fill="#FEFFFF" transform="matrix(1.00, 0.00, -0.00, -1.00, 716.8, 9.0)">.</text></g></svg>