<?xml version="1.0" encoding="UTF-8"?><svg xmlns="http://www.w3.org/2000/svg" xmlns:xlink="http://www.w3.org/1999/xlink" clip-rule="evenodd" stroke-miterlimit="4.00" viewBox="0 0 1024 768"><desc>SVG generated by Keynote</desc><defs></defs><g transform="matrix(1.00, 0.00, -0.00, -1.00, 0.0, 768.0)"><path d="M 0.0 0.0 L 1024.0 0.0 L 1024.0 768.0 L 0.0 768.0 Z M 0.0 0.0 " fill="#000000"></path><text xml:space="preserve" font-family="Helvetica-Light" font-size="33.0" fill="#FEFFFF" transform="matrix(1.00, 0.00, -0.00, -1.00, 32.0, 673.0)">P</text><text xml:space="preserve" font-family="Helvetica-Light" font-size="33.0" fill="#FEFFFF" transform="matrix(1.00, 0.00, -0.00, -1.00, 52.2, 673.0)">e</text><text xml:space="preserve" font-family="Helvetica-Light" font-size="33.0" fill="#FEFFFF" transform="matrix(1.00, 0.00, -0.00, -1.00, 70.5, 673.0)">r</text><text xml:space="preserve" font-family="Helvetica-Light" font-size="33.0" fill="#FEFFFF" transform="matrix(1.00, 0.00, -0.00, -1.00, 82.1, 673.0)">f</text><text xml:space="preserve" font-family="Helvetica-Light" font-size="33.0" fill="#FEFFFF" transform="matrix(1.00, 0.00, -0.00, -1.00, 91.3, 673.0)">e</text><text xml:space="preserve" font-family="Helvetica-Light" font-size="33.0" fill="#FEFFFF" transform="matrix(1.00, 0.00, -0.00, -1.00, 109.6, 673.0)">c</text><text xml:space="preserve" font-family="Helvetica-Light" font-size="33.0" fill="#FEFFFF" transform="matrix(1.00, 0.00, -0.00, -1.00, 128.0, 673.0)">t</text><text xml:space="preserve" font-family="Helvetica-Light" font-size="33.0" fill="#FEFFFF" transform="matrix(1.00, 0.00, -0.00, -1.00, 137.1, 673.0)">,</text><text xml:space="preserve" font-family="Helvetica-Light" font-size="33.0" fill="#FEFFFF" transform="matrix(1.00, 0.00, -0.00, -1.00, 146.3, 673.0)"> </text><text xml:space="preserve" font-family="Helvetica-Light" font-size="33.0" fill="#FEFFFF" transform="matrix(1.00, 0.00, -0.00, -1.00, 155.5, 673.0)">A</text><text xml:space="preserve" font-family="Helvetica-Light" font-size="33.0" fill="#FEFFFF" transform="matrix(1.00, 0.00, -0.00, -1.00, 177.5, 673.0)">m</text><text xml:space="preserve" font-family="Helvetica-Light" font-size="33.0" fill="#FEFFFF" transform="matrix(1.00, 0.00, -0.00, -1.00, 205.0, 673.0)">y</text><text xml:space="preserve" font-family="Helvetica-Light" font-size="33.0" fill="#FEFFFF" transform="matrix(1.00, 0.00, -0.00, -1.00, 221.5, 673.0)"> </text><text xml:space="preserve" font-family="Helvetica-Light" font-size="33.0" fill="#FEFFFF" transform="matrix(1.00, 0.00, -0.00, -1.00, 230.7, 673.0)">a</text><text xml:space="preserve" font-family="Helvetica-Light" font-size="33.0" fill="#FEFFFF" transform="matrix(1.00, 0.00, -0.00, -1.00, 249.0, 673.0)">c</text><text xml:space="preserve" font-family="Helvetica-Light" font-size="33.0" fill="#FEFFFF" transform="matrix(1.00, 0.00, -0.00, -1.00, 267.4, 673.0)">c</text><text xml:space="preserve" font-family="Helvetica-Light" font-size="33.0" fill="#FEFFFF" transform="matrix(1.00, 0.00, -0.00, -1.00, 285.7, 673.0)">e</text><text xml:space="preserve" font-family="Helvetica-Light" font-size="33.0" fill="#FEFFFF" transform="matrix(1.00, 0.00, -0.00, -1.00, 304.1, 673.0)">p</text><text xml:space="preserve" font-family="Helvetica-Light" font-size="33.0" fill="#FEFFFF" transform="matrix(1.00, 0.00, -0.00, -1.00, 324.2, 673.0)">t</text><text xml:space="preserve" font-family="Helvetica-Light" font-size="33.0" fill="#FEFFFF" transform="matrix(1.00, 0.00, -0.00, -1.00, 333.4, 673.0)">e</text><text xml:space="preserve" font-family="Helvetica-Light" font-size="33.0" fill="#FEFFFF" transform="matrix(1.00, 0.00, -0.00, -1.00, 351.7, 673.0)">d</text><text xml:space="preserve" font-family="Helvetica-Light" font-size="33.0" fill="#FEFFFF" transform="matrix(1.00, 0.00, -0.00, -1.00, 371.9, 673.0)"> </text><text xml:space="preserve" font-family="Helvetica-Light" font-size="33.0" fill="#FEFFFF" transform="matrix(1.00, 0.00, -0.00, -1.00, 381.1, 673.0)">J</text><text xml:space="preserve" font-family="Helvetica-Light" font-size="33.0" fill="#FEFFFF" transform="matrix(1.00, 0.00, -0.00, -1.00, 397.6, 673.0)">e</text><text xml:space="preserve" font-family="Helvetica-Light" font-size="33.0" fill="#FEFFFF" transform="matrix(1.00, 0.00, -0.00, -1.00, 415.9, 673.0)">r</text><text xml:space="preserve" font-family="Helvetica-Light" font-size="33.0" fill="#FEFFFF" transform="matrix(1.00, 0.00, -0.00, -1.00, 426.3, 673.0)">e</text><text xml:space="preserve" font-family="Helvetica-Light" font-size="33.0" fill="#FEFFFF" transform="matrix(1.00, 0.00, -0.00, -1.00, 444.7, 673.0)">m</text><text xml:space="preserve" font-family="Helvetica-Light" font-size="33.0" fill="#FEFFFF" transform="matrix(1.00, 0.00, -0.00, -1.00, 472.2, 673.0)">y</text><text xml:space="preserve" font-family="Helvetica-Light" font-size="33.0" fill="#FEFFFF" transform="matrix(1.00, 0.00, -0.00, -1.00, 488.7, 673.0)">’</text><text xml:space="preserve" font-family="Helvetica-Light" font-size="33.0" fill="#FEFFFF" transform="matrix(1.00, 0.00, -0.00, -1.00, 493.5, 673.0)">s</text><text xml:space="preserve" font-family="Helvetica-Light" font-size="33.0" fill="#FEFFFF" transform="matrix(1.00, 0.00, -0.00, -1.00, 510.0, 673.0)"> </text><text xml:space="preserve" font-family="Helvetica-Light" font-size="33.0" fill="#FEFFFF" transform="matrix(1.00, 0.00, -0.00, -1.00, 519.2, 673.0)">c</text><text xml:space="preserve" font-family="Helvetica-Light" font-size="33.0" fill="#FEFFFF" transform="matrix(1.00, 0.00, -0.00, -1.00, 537.6, 673.0)">o</text><text xml:space="preserve" font-family="Helvetica-Light" font-size="33.0" fill="#FEFFFF" transform="matrix(1.00, 0.00, -0.00, -1.00, 555.9, 673.0)">n</text><text xml:space="preserve" font-family="Helvetica-Light" font-size="33.0" fill="#FEFFFF" transform="matrix(1.00, 0.00, -0.00, -1.00, 574.3, 673.0)">f</text><text xml:space="preserve" font-family="Helvetica-Light" font-size="33.0" fill="#FEFFFF" transform="matrix(1.00, 0.00, -0.00, -1.00, 583.4, 673.0)">e</text><text xml:space="preserve" font-family="Helvetica-Light" font-size="33.0" fill="#FEFFFF" transform="matrix(1.00, 0.00, -0.00, -1.00, 601.8, 673.0)">s</text><text xml:space="preserve" font-family="Helvetica-Light" font-size="33.0" fill="#FEFFFF" transform="matrix(1.00, 0.00, -0.00, -1.00, 618.3, 673.0)">s</text><text xml:space="preserve" font-family="Helvetica-Light" font-size="33.0" fill="#FEFFFF" transform="matrix(1.00, 0.00, -0.00, -1.00, 634.8, 673.0)">i</text><text xml:space="preserve" font-family="Helvetica-Light" font-size="33.0" fill="#FEFFFF" transform="matrix(1.00, 0.00, -0.00, -1.00, 642.1, 673.0)">o</text><text xml:space="preserve" font-family="Helvetica-Light" font-size="33.0" fill="#FEFFFF" transform="matrix(1.00, 0.00, -0.00, -1.00, 660.5, 673.0)">n</text><text xml:space="preserve" font-family="Helvetica-Light" font-size="33.0" fill="#FEFFFF" transform="matrix(1.00, 0.00, -0.00, -1.00, 678.8, 673.0)">,</text><text xml:space="preserve" font-family="Helvetica-Light" font-size="33.0" fill="#FEFFFF" transform="matrix(1.00, 0.00, -0.00, -1.00, 688.0, 673.0)"> </text><text xml:space="preserve" font-family="Helvetica-Light" font-size="33.0" fill="#FEFFFF" transform="matrix(1.00, 0.00, -0.00, -1.00, 697.1, 673.0)">J</text><text xml:space="preserve" font-family="Helvetica-Light" font-size="33.0" fill="#FEFFFF" transform="matrix(1.00, 0.00, -0.00, -1.00, 713.6, 673.0)">e</text><text xml:space="preserve" font-family="Helvetica-Light" font-size="33.0" fill="#FEFFFF" transform="matrix(1.00, 0.00, -0.00, -1.00, 732.0, 673.0)">r</text><text xml:space="preserve" font-family="Helvetica-Light" font-size="33.0" fill="#FEFFFF" transform="matrix(1.00, 0.00, -0.00, -1.00, 742.4, 673.0)">e</text><text xml:space="preserve" font-family="Helvetica-Light" font-size="33.0" fill="#FEFFFF" transform="matrix(1.00, 0.00, -0.00, -1.00, 760.7, 673.0)">m</text><text xml:space="preserve" font-family="Helvetica-Light" font-size="33.0" fill="#FEFFFF" transform="matrix(1.00, 0.00, -0.00, -1.00, 788.2, 673.0)">y</text><text xml:space="preserve" font-family="Helvetica-Light" font-size="33.0" fill="#FEFFFF" transform="matrix(1.00, 0.00, -0.00, -1.00, 804.7, 673.0)"> </text><text xml:space="preserve" font-family="Helvetica-Light" font-size="33.0" fill="#FEFFFF" transform="matrix(1.00, 0.00, -0.00, -1.00, 813.9, 673.0)">w</text><text xml:space="preserve" font-family="Helvetica-Light" font-size="33.0" fill="#FEFFFF" transform="matrix(1.00, 0.00, -0.00, -1.00, 837.7, 673.0)">a</text><text xml:space="preserve" font-family="Helvetica-Light" font-size="33.0" fill="#FEFFFF" transform="matrix(1.00, 0.00, -0.00, -1.00, 856.1, 673.0)">s</text><text xml:space="preserve" font-family="Helvetica-Light" font-size="33.0" fill="#FEFFFF" transform="matrix(1.00, 0.00, -0.00, -1.00, 872.6, 673.0)"> </text><text xml:space="preserve" font-family="Helvetica-Light" font-size="33.0" fill="#FEFFFF" transform="matrix(1.00, 0.00, -0.00, -1.00, 881.7, 673.0)">v</text><text xml:space="preserve" font-family="Helvetica-Light" font-size="33.0" fill="#FEFFFF" transform="matrix(1.00, 0.00, -0.00, -1.00, 898.2, 673.0)">e</text><text xml:space="preserve" font-family="Helvetica-Light" font-size="33.0" fill="#FEFFFF" transform="matrix(1.00, 0.00, -0.00, -1.00, 916.6, 673.0)">r</text><text xml:space="preserve" font-family="Helvetica-Light" font-size="33.0" fill="#FEFFFF" transform="matrix(1.00, 0.00, -0.00, -1.00, 928.2, 673.0)">y</text><text xml:space="preserve" font-family="Helvetica-Light" font-size="33.0" fill="#FEFFFF" transform="matrix(1.00, 0.00, -0.00, -1.00, 944.7, 673.0)"> </text><text xml:space="preserve" font-family="Helvetica-Light" font-size="33.0" fill="#FEFFFF" transform="matrix(1.00, 0.00, -0.00, -1.00, 32.0, 633.0)">h</text><text xml:space="preserve" font-family="Helvetica-Light" font-size="33.0" fill="#FEFFFF" transform="matrix(1.00, 0.00, -0.00, -1.00, 50.3, 633.0)">a</text><text xml:space="preserve" font-family="Helvetica-Light" font-size="33.0" fill="#FEFFFF" transform="matrix(1.00, 0.00, -0.00, -1.00, 68.7, 633.0)">p</text><text xml:space="preserve" font-family="Helvetica-Light" font-size="33.0" fill="#FEFFFF" transform="matrix(1.00, 0.00, -0.00, -1.00, 88.9, 633.0)">p</text><text xml:space="preserve" font-family="Helvetica-Light" font-size="33.0" fill="#FEFFFF" transform="matrix(1.00, 0.00, -0.00, -1.00, 109.0, 633.0)">y</text><text xml:space="preserve" font-family="Helvetica-Light" font-size="33.0" fill="#FEFFFF" transform="matrix(1.00, 0.00, -0.00, -1.00, 125.5, 633.0)"> </text><text xml:space="preserve" font-family="Helvetica-Light" font-size="33.0" fill="#FEFFFF" transform="matrix(1.00, 0.00, -0.00, -1.00, 134.7, 633.0)">t</text><text xml:space="preserve" font-family="Helvetica-Light" font-size="33.0" fill="#FEFFFF" transform="matrix(1.00, 0.00, -0.00, -1.00, 143.9, 633.0)">h</text><text xml:space="preserve" font-family="Helvetica-Light" font-size="33.0" fill="#FEFFFF" transform="matrix(1.00, 0.00, -0.00, -1.00, 162.2, 633.0)">a</text><text xml:space="preserve" font-family="Helvetica-Light" font-size="33.0" fill="#FEFFFF" transform="matrix(1.00, 0.00, -0.00, -1.00, 180.6, 633.0)">t</text><text xml:space="preserve" font-family="Helvetica-Light" font-size="33.0" fill="#FEFFFF" transform="matrix(1.00, 0.00, -0.00, -1.00, 189.7, 633.0)"> </text><text xml:space="preserve" font-family="Helvetica-Light" font-size="33.0" fill="#FEFFFF" transform="matrix(1.00, 0.00, -0.00, -1.00, 198.9, 633.0)">h</text><text xml:space="preserve" font-family="Helvetica-Light" font-size="33.0" fill="#FEFFFF" transform="matrix(1.00, 0.00, -0.00, -1.00, 217.3, 633.0)">e</text><text xml:space="preserve" font-family="Helvetica-Light" font-size="33.0" fill="#FEFFFF" transform="matrix(1.00, 0.00, -0.00, -1.00, 235.6, 633.0)"> </text><text xml:space="preserve" font-family="Helvetica-Light" font-size="33.0" fill="#FEFFFF" transform="matrix(1.00, 0.00, -0.00, -1.00, 244.8, 633.0)">c</text><text xml:space="preserve" font-family="Helvetica-Light" font-size="33.0" fill="#FEFFFF" transform="matrix(1.00, 0.00, -0.00, -1.00, 263.1, 633.0)">o</text><text xml:space="preserve" font-family="Helvetica-Light" font-size="33.0" fill="#FEFFFF" transform="matrix(1.00, 0.00, -0.00, -1.00, 281.5, 633.0)">u</text><text xml:space="preserve" font-family="Helvetica-Light" font-size="33.0" fill="#FEFFFF" transform="matrix(1.00, 0.00, -0.00, -1.00, 299.8, 633.0)">l</text><text xml:space="preserve" font-family="Helvetica-Light" font-size="33.0" fill="#FEFFFF" transform="matrix(1.00, 0.00, -0.00, -1.00, 307.2, 633.0)">d</text><text xml:space="preserve" font-family="Helvetica-Light" font-size="33.0" fill="#FEFFFF" transform="matrix(1.00, 0.00, -0.00, -1.00, 327.3, 633.0)"> </text><text xml:space="preserve" font-family="Helvetica-Light" font-size="33.0" fill="#FEFFFF" transform="matrix(1.00, 0.00, -0.00, -1.00, 336.5, 633.0)">ﬁ</text><text xml:space="preserve" font-family="Helvetica-Light" font-size="33.0" fill="#FEFFFF" transform="matrix(1.00, 0.00, -0.00, -1.00, 353.0, 633.0)">n</text><text xml:space="preserve" font-family="Helvetica-Light" font-size="33.0" fill="#FEFFFF" transform="matrix(1.00, 0.00, -0.00, -1.00, 371.3, 633.0)">a</text><text xml:space="preserve" font-family="Helvetica-Light" font-size="33.0" fill="#FEFFFF" transform="matrix(1.00, 0.00, -0.00, -1.00, 389.7, 633.0)">l</text><text xml:space="preserve" font-family="Helvetica-Light" font-size="33.0" fill="#FEFFFF" transform="matrix(1.00, 0.00, -0.00, -1.00, 397.0, 633.0)">l</text><text xml:space="preserve" font-family="Helvetica-Light" font-size="33.0" fill="#FEFFFF" transform="matrix(1.00, 0.00, -0.00, -1.00, 404.3, 633.0)">y</text><text xml:space="preserve" font-family="Helvetica-Light" font-size="33.0" fill="#FEFFFF" transform="matrix(1.00, 0.00, -0.00, -1.00, 420.8, 633.0)"> </text><text xml:space="preserve" font-family="Helvetica-Light" font-size="33.0" fill="#FEFFFF" transform="matrix(1.00, 0.00, -0.00, -1.00, 430.0, 633.0)">g</text><text xml:space="preserve" font-family="Helvetica-Light" font-size="33.0" fill="#FEFFFF" transform="matrix(1.00, 0.00, -0.00, -1.00, 450.2, 633.0)">e</text><text xml:space="preserve" font-family="Helvetica-Light" font-size="33.0" fill="#FEFFFF" transform="matrix(1.00, 0.00, -0.00, -1.00, 468.5, 633.0)">t</text><text xml:space="preserve" font-family="Helvetica-Light" font-size="33.0" fill="#FEFFFF" transform="matrix(1.00, 0.00, -0.00, -1.00, 477.7, 633.0)"> </text><text xml:space="preserve" font-family="Helvetica-Light" font-size="33.0" fill="#FEFFFF" transform="matrix(1.00, 0.00, -0.00, -1.00, 486.9, 633.0)">t</text><text xml:space="preserve" font-family="Helvetica-Light" font-size="33.0" fill="#FEFFFF" transform="matrix(1.00, 0.00, -0.00, -1.00, 496.0, 633.0)">o</text><text xml:space="preserve" font-family="Helvetica-Light" font-size="33.0" fill="#FEFFFF" transform="matrix(1.00, 0.00, -0.00, -1.00, 514.4, 633.0)">g</text><text xml:space="preserve" font-family="Helvetica-Light" font-size="33.0" fill="#FEFFFF" transform="matrix(1.00, 0.00, -0.00, -1.00, 534.6, 633.0)">e</text><text xml:space="preserve" font-family="Helvetica-Light" font-size="33.0" fill="#FEFFFF" transform="matrix(1.00, 0.00, -0.00, -1.00, 552.9, 633.0)">t</text><text xml:space="preserve" font-family="Helvetica-Light" font-size="33.0" fill="#FEFFFF" transform="matrix(1.00, 0.00, -0.00, -1.00, 562.1, 633.0)">h</text><text xml:space="preserve" font-family="Helvetica-Light" font-size="33.0" fill="#FEFFFF" transform="matrix(1.00, 0.00, -0.00, -1.00, 580.4, 633.0)">e</text><text xml:space="preserve" font-family="Helvetica-Light" font-size="33.0" fill="#FEFFFF" transform="matrix(1.00, 0.00, -0.00, -1.00, 598.8, 633.0)">r</text><text xml:space="preserve" font-family="Helvetica-Light" font-size="33.0" fill="#FEFFFF" transform="matrix(1.00, 0.00, -0.00, -1.00, 609.8, 633.0)"> </text><text xml:space="preserve" font-family="Helvetica-Light" font-size="33.0" fill="#FEFFFF" transform="matrix(1.00, 0.00, -0.00, -1.00, 618.9, 633.0)">w</text><text xml:space="preserve" font-family="Helvetica-Light" font-size="33.0" fill="#FEFFFF" transform="matrix(1.00, 0.00, -0.00, -1.00, 642.8, 633.0)">i</text><text xml:space="preserve" font-family="Helvetica-Light" font-size="33.0" fill="#FEFFFF" transform="matrix(1.00, 0.00, -0.00, -1.00, 650.1, 633.0)">t</text><text xml:space="preserve" font-family="Helvetica-Light" font-size="33.0" fill="#FEFFFF" transform="matrix(1.00, 0.00, -0.00, -1.00, 659.3, 633.0)">h</text><text xml:space="preserve" font-family="Helvetica-Light" font-size="33.0" fill="#FEFFFF" transform="matrix(1.00, 0.00, -0.00, -1.00, 677.6, 633.0)"> </text><text xml:space="preserve" font-family="Helvetica-Light" font-size="33.0" fill="#FEFFFF" transform="matrix(1.00, 0.00, -0.00, -1.00, 686.8, 633.0)">A</text><text xml:space="preserve" font-family="Helvetica-Light" font-size="33.0" fill="#FEFFFF" transform="matrix(1.00, 0.00, -0.00, -1.00, 708.8, 633.0)">m</text><text xml:space="preserve" font-family="Helvetica-Light" font-size="33.0" fill="#FEFFFF" transform="matrix(1.00, 0.00, -0.00, -1.00, 736.3, 633.0)">y</text><text xml:space="preserve" font-family="Helvetica-Light" font-size="33.0" fill="#FEFFFF" transform="matrix(1.00, 0.00, -0.00, -1.00, 749.8, 633.0)">.</text><text xml:space="preserve" font-family="Helvetica-Light" font-size="33.0" fill="#FEFFFF" transform="matrix(1.00, 0.00, -0.00, -1.00, 28.0, 552.0)">A</text><text xml:space="preserve" font-family="Helvetica-Light" font-size="33.0" fill="#FEFFFF" transform="matrix(1.00, 0.00, -0.00, -1.00, 50.0, 552.0)">l</text><text xml:space="preserve" font-family="Helvetica-Light" font-size="33.0" fill="#FEFFFF" transform="matrix(1.00, 0.00, -0.00, -1.00, 57.3, 552.0)">s</text><text xml:space="preserve" font-family="Helvetica-Light" font-size="33.0" fill="#FEFFFF" transform="matrix(1.00, 0.00, -0.00, -1.00, 73.8, 552.0)">o</text><text xml:space="preserve" font-family="Helvetica-Light" font-size="33.0" fill="#FEFFFF" transform="matrix(1.00, 0.00, -0.00, -1.00, 92.2, 552.0)">,</text><text xml:space="preserve" font-family="Helvetica-Light" font-size="33.0" fill="#FEFFFF" transform="matrix(1.00, 0.00, -0.00, -1.00, 101.4, 552.0)"> </text><text xml:space="preserve" font-family="Helvetica-Light" font-size="33.0" fill="#FEFFFF" transform="matrix(1.00, 0.00, -0.00, -1.00, 110.5, 552.0)">h</text><text xml:space="preserve" font-family="Helvetica-Light" font-size="33.0" fill="#FEFFFF" transform="matrix(1.00, 0.00, -0.00, -1.00, 128.9, 552.0)">e</text><text xml:space="preserve" font-family="Helvetica-Light" font-size="33.0" fill="#FEFFFF" transform="matrix(1.00, 0.00, -0.00, -1.00, 147.2, 552.0)"> </text><text xml:space="preserve" font-family="Helvetica-Light" font-size="33.0" fill="#FEFFFF" transform="matrix(1.00, 0.00, -0.00, -1.00, 156.4, 552.0)">b</text><text xml:space="preserve" font-family="Helvetica-Light" font-size="33.0" fill="#FEFFFF" transform="matrix(1.00, 0.00, -0.00, -1.00, 176.6, 552.0)">e</text><text xml:space="preserve" font-family="Helvetica-Light" font-size="33.0" fill="#FEFFFF" transform="matrix(1.00, 0.00, -0.00, -1.00, 194.9, 552.0)">c</text><text xml:space="preserve" font-family="Helvetica-Light" font-size="33.0" fill="#FEFFFF" transform="matrix(1.00, 0.00, -0.00, -1.00, 213.3, 552.0)">a</text><text xml:space="preserve" font-family="Helvetica-Light" font-size="33.0" fill="#FEFFFF" transform="matrix(1.00, 0.00, -0.00, -1.00, 231.6, 552.0)">m</text><text xml:space="preserve" font-family="Helvetica-Light" font-size="33.0" fill="#FEFFFF" transform="matrix(1.00, 0.00, -0.00, -1.00, 259.1, 552.0)">e</text><text xml:space="preserve" font-family="Helvetica-Light" font-size="33.0" fill="#FEFFFF" transform="matrix(1.00, 0.00, -0.00, -1.00, 277.4, 552.0)"> </text><text xml:space="preserve" font-family="Helvetica-Light" font-size="33.0" fill="#FEFFFF" transform="matrix(1.00, 0.00, -0.00, -1.00, 286.6, 552.0)">m</text><text xml:space="preserve" font-family="Helvetica-Light" font-size="33.0" fill="#FEFFFF" transform="matrix(1.00, 0.00, -0.00, -1.00, 314.1, 552.0)">o</text><text xml:space="preserve" font-family="Helvetica-Light" font-size="33.0" fill="#FEFFFF" transform="matrix(1.00, 0.00, -0.00, -1.00, 332.5, 552.0)">r</text><text xml:space="preserve" font-family="Helvetica-Light" font-size="33.0" fill="#FEFFFF" transform="matrix(1.00, 0.00, -0.00, -1.00, 342.9, 552.0)">e</text><text xml:space="preserve" font-family="Helvetica-Light" font-size="33.0" fill="#FEFFFF" transform="matrix(1.00, 0.00, -0.00, -1.00, 361.2, 552.0)"> </text><text xml:space="preserve" font-family="Helvetica-Light" font-size="33.0" fill="#FEFFFF" transform="matrix(1.00, 0.00, -0.00, -1.00, 370.4, 552.0)">c</text><text xml:space="preserve" font-family="Helvetica-Light" font-size="33.0" fill="#FEFFFF" transform="matrix(1.00, 0.00, -0.00, -1.00, 388.7, 552.0)">o</text><text xml:space="preserve" font-family="Helvetica-Light" font-size="33.0" fill="#FEFFFF" transform="matrix(1.00, 0.00, -0.00, -1.00, 407.1, 552.0)">n</text><text xml:space="preserve" font-family="Helvetica-Light" font-size="33.0" fill="#FEFFFF" transform="matrix(1.00, 0.00, -0.00, -1.00, 425.4, 552.0)">ﬁ</text><text xml:space="preserve" font-family="Helvetica-Light" font-size="33.0" fill="#FEFFFF" transform="matrix(1.00, 0.00, -0.00, -1.00, 441.9, 552.0)">d</text><text xml:space="preserve" font-family="Helvetica-Light" font-size="33.0" fill="#FEFFFF" transform="matrix(1.00, 0.00, -0.00, -1.00, 462.1, 552.0)">e</text><text xml:space="preserve" font-family="Helvetica-Light" font-size="33.0" fill="#FEFFFF" transform="matrix(1.00, 0.00, -0.00, -1.00, 480.4, 552.0)">n</text><text xml:space="preserve" font-family="Helvetica-Light" font-size="33.0" fill="#FEFFFF" transform="matrix(1.00, 0.00, -0.00, -1.00, 498.8, 552.0)">t</text><text xml:space="preserve" font-family="Helvetica-Light" font-size="33.0" fill="#FEFFFF" transform="matrix(1.00, 0.00, -0.00, -1.00, 508.0, 552.0)"> </text><text xml:space="preserve" font-family="Helvetica-Light" font-size="33.0" fill="#FEFFFF" transform="matrix(1.00, 0.00, -0.00, -1.00, 517.1, 552.0)">a</text><text xml:space="preserve" font-family="Helvetica-Light" font-size="33.0" fill="#FEFFFF" transform="matrix(1.00, 0.00, -0.00, -1.00, 535.5, 552.0)">n</text><text xml:space="preserve" font-family="Helvetica-Light" font-size="33.0" fill="#FEFFFF" transform="matrix(1.00, 0.00, -0.00, -1.00, 553.8, 552.0)">d</text><text xml:space="preserve" font-family="Helvetica-Light" font-size="33.0" fill="#FEFFFF" transform="matrix(1.00, 0.00, -0.00, -1.00, 574.0, 552.0)"> </text><text xml:space="preserve" font-family="Helvetica-Light" font-size="33.0" fill="#FEFFFF" transform="matrix(1.00, 0.00, -0.00, -1.00, 583.2, 552.0)">w</text><text xml:space="preserve" font-family="Helvetica-Light" font-size="33.0" fill="#FEFFFF" transform="matrix(1.00, 0.00, -0.00, -1.00, 607.0, 552.0)">i</text><text xml:space="preserve" font-family="Helvetica-Light" font-size="33.0" fill="#FEFFFF" transform="matrix(1.00, 0.00, -0.00, -1.00, 614.3, 552.0)">l</text><text xml:space="preserve" font-family="Helvetica-Light" font-size="33.0" fill="#FEFFFF" transform="matrix(1.00, 0.00, -0.00, -1.00, 621.6, 552.0)">l</text><text xml:space="preserve" font-family="Helvetica-Light" font-size="33.0" fill="#FEFFFF" transform="matrix(1.00, 0.00, -0.00, -1.00, 629.0, 552.0)">i</text><text xml:space="preserve" font-family="Helvetica-Light" font-size="33.0" fill="#FEFFFF" transform="matrix(1.00, 0.00, -0.00, -1.00, 636.3, 552.0)">n</text><text xml:space="preserve" font-family="Helvetica-Light" font-size="33.0" fill="#FEFFFF" transform="matrix(1.00, 0.00, -0.00, -1.00, 654.6, 552.0)">g</text><text xml:space="preserve" font-family="Helvetica-Light" font-size="33.0" fill="#FEFFFF" transform="matrix(1.00, 0.00, -0.00, -1.00, 674.8, 552.0)"> </text><text xml:space="preserve" font-family="Helvetica-Light" font-size="33.0" fill="#FEFFFF" transform="matrix(1.00, 0.00, -0.00, -1.00, 684.0, 552.0)">t</text><text xml:space="preserve" font-family="Helvetica-Light" font-size="33.0" fill="#FEFFFF" transform="matrix(1.00, 0.00, -0.00, -1.00, 693.1, 552.0)">o</text><text xml:space="preserve" font-family="Helvetica-Light" font-size="33.0" fill="#FEFFFF" transform="matrix(1.00, 0.00, -0.00, -1.00, 711.5, 552.0)"> </text><text xml:space="preserve" font-family="Helvetica-Light" font-size="33.0" fill="#FEFFFF" transform="matrix(1.00, 0.00, -0.00, -1.00, 720.7, 552.0)">t</text><text xml:space="preserve" font-family="Helvetica-Light" font-size="33.0" fill="#FEFFFF" transform="matrix(1.00, 0.00, -0.00, -1.00, 729.8, 552.0)">r</text><text xml:space="preserve" font-family="Helvetica-Light" font-size="33.0" fill="#FEFFFF" transform="matrix(1.00, 0.00, -0.00, -1.00, 740.8, 552.0)">u</text><text xml:space="preserve" font-family="Helvetica-Light" font-size="33.0" fill="#FEFFFF" transform="matrix(1.00, 0.00, -0.00, -1.00, 759.2, 552.0)">s</text><text xml:space="preserve" font-family="Helvetica-Light" font-size="33.0" fill="#FEFFFF" transform="matrix(1.00, 0.00, -0.00, -1.00, 775.7, 552.0)">t</text><text xml:space="preserve" font-family="Helvetica-Light" font-size="33.0" fill="#FEFFFF" transform="matrix(1.00, 0.00, -0.00, -1.00, 784.9, 552.0)"> </text><text xml:space="preserve" font-family="Helvetica-Light" font-size="33.0" fill="#FEFFFF" transform="matrix(1.00, 0.00, -0.00, -1.00, 794.0, 552.0)">o</text><text xml:space="preserve" font-family="Helvetica-Light" font-size="33.0" fill="#FEFFFF" transform="matrix(1.00, 0.00, -0.00, -1.00, 812.4, 552.0)">t</text><text xml:space="preserve" font-family="Helvetica-Light" font-size="33.0" fill="#FEFFFF" transform="matrix(1.00, 0.00, -0.00, -1.00, 821.6, 552.0)">h</text><text xml:space="preserve" font-family="Helvetica-Light" font-size="33.0" fill="#FEFFFF" transform="matrix(1.00, 0.00, -0.00, -1.00, 839.9, 552.0)">e</text><text xml:space="preserve" font-family="Helvetica-Light" font-size="33.0" fill="#FEFFFF" transform="matrix(1.00, 0.00, -0.00, -1.00, 858.2, 552.0)">r</text><text xml:space="preserve" font-family="Helvetica-Light" font-size="33.0" fill="#FEFFFF" transform="matrix(1.00, 0.00, -0.00, -1.00, 869.2, 552.0)"> </text><text xml:space="preserve" font-family="Helvetica-Light" font-size="33.0" fill="#FEFFFF" transform="matrix(1.00, 0.00, -0.00, -1.00, 878.4, 552.0)">p</text><text xml:space="preserve" font-family="Helvetica-Light" font-size="33.0" fill="#FEFFFF" transform="matrix(1.00, 0.00, -0.00, -1.00, 898.6, 552.0)">e</text><text xml:space="preserve" font-family="Helvetica-Light" font-size="33.0" fill="#FEFFFF" transform="matrix(1.00, 0.00, -0.00, -1.00, 916.9, 552.0)">o</text><text xml:space="preserve" font-family="Helvetica-Light" font-size="33.0" fill="#FEFFFF" transform="matrix(1.00, 0.00, -0.00, -1.00, 935.3, 552.0)">p</text><text xml:space="preserve" font-family="Helvetica-Light" font-size="33.0" fill="#FEFFFF" transform="matrix(1.00, 0.00, -0.00, -1.00, 955.4, 552.0)">l</text><text xml:space="preserve" font-family="Helvetica-Light" font-size="33.0" fill="#FEFFFF" transform="matrix(1.00, 0.00, -0.00, -1.00, 962.8, 552.0)">e</text><text xml:space="preserve" font-family="Helvetica-Light" font-size="33.0" fill="#FEFFFF" transform="matrix(1.00, 0.00, -0.00, -1.00, 981.1, 552.0)">.</text><text xml:space="preserve" font-family="Helvetica-Light" font-size="33.0" fill="#FEFFFF" transform="matrix(1.00, 0.00, -0.00, -1.00, 990.3, 552.0)"> </text><image xlink:href="../../CFE34472-8DB6-407A-8D55-3959C21054AE/assets/E01E05AD1961350707D37EE300E7BAE5.jpeg" width="759.00" height="498.00" transform="matrix(1.00, 0.00, -0.00, -1.00, 135.0, 509.0)"></image></g></svg>