<?xml version="1.0" encoding="UTF-8"?><svg xmlns="http://www.w3.org/2000/svg" xmlns:xlink="http://www.w3.org/1999/xlink" clip-rule="evenodd" stroke-miterlimit="4.00" viewBox="0 0 1024 768"><desc>SVG generated by Keynote</desc><defs></defs><g transform="matrix(1.00, 0.00, -0.00, -1.00, 0.0, 768.0)"><path d="M 0.0 0.0 L 1024.0 0.0 L 1024.0 768.0 L 0.0 768.0 Z M 0.0 0.0 " fill="#000000"></path><image xlink:href="AE6D4F5A67042C8D3043E39706B9D795.jpeg" width="1067.00" height="768.00" transform="matrix(1.05, 0.00, -0.00, -1.05, -47.0, 787.0)"></image><g opacity="0.59"><g><clipPath id="clip-8"><path d="M 565.0 0.0 L 1024.0 0.0 L 1024.0 378.0 L 565.0 378.0 Z M 565.0 0.0 "></path></clipPath><g clip-path="url(#clip-8)"><path d="M 566.8 376.4 L 1027.1 376.4 L 1027.1 0.9 L 566.8 0.9 Z M 566.8 376.4 " fill="#000000"></path></g></g></g><text xml:space="preserve" font-family="Helvetica-Bold" font-weight="bold" font-size="30.0" fill="#FEFFFF" transform="matrix(1.00, 0.00, -0.00, -1.00, 635.0, 274.0)">T</text><text xml:space="preserve" font-family="Helvetica-Bold" font-weight="bold" font-size="30.0" fill="#FEFFFF" transform="matrix(1.00, 0.00, -0.00, -1.00, 653.3, 274.0)">h</text><text xml:space="preserve" font-family="Helvetica-Bold" font-weight="bold" font-size="30.0" fill="#FEFFFF" transform="matrix(1.00, 0.00, -0.00, -1.00, 671.6, 274.0)">i</text><text xml:space="preserve" font-family="Helvetica-Bold" font-weight="bold" font-size="30.0" fill="#FEFFFF" transform="matrix(1.00, 0.00, -0.00, -1.00, 680.0, 274.0)">s</text><text xml:space="preserve" font-family="Helvetica-Bold" font-weight="bold" font-size="30.0" fill="#FEFFFF" transform="matrix(1.00, 0.00, -0.00, -1.00, 696.7, 274.0)"> </text><text xml:space="preserve" font-family="Helvetica-Bold" font-weight="bold" font-size="30.0" fill="#FEFFFF" transform="matrix(1.00, 0.00, -0.00, -1.00, 705.0, 274.0)">i</text><text xml:space="preserve" font-family="Helvetica-Bold" font-weight="bold" font-size="30.0" fill="#FEFFFF" transform="matrix(1.00, 0.00, -0.00, -1.00, 713.3, 274.0)">s</text><text xml:space="preserve" font-family="Helvetica-Bold" font-weight="bold" font-size="30.0" fill="#FEFFFF" transform="matrix(1.00, 0.00, -0.00, -1.00, 730.0, 274.0)"> </text><text xml:space="preserve" font-family="Helvetica-Bold" font-weight="bold" font-size="30.0" fill="#FEFFFF" transform="matrix(1.00, 0.00, -0.00, -1.00, 738.3, 274.0)">a</text><text xml:space="preserve" font-family="Helvetica-Bold" font-weight="bold" font-size="30.0" fill="#FEFFFF" transform="matrix(1.00, 0.00, -0.00, -1.00, 755.0, 274.0)"> </text><text xml:space="preserve" font-family="Helvetica-Bold" font-weight="bold" font-size="30.0" fill="#FEFFFF" transform="matrix(1.00, 0.00, -0.00, -1.00, 763.4, 274.0)">p</text><text xml:space="preserve" font-family="Helvetica-Bold" font-weight="bold" font-size="30.0" fill="#FEFFFF" transform="matrix(1.00, 0.00, -0.00, -1.00, 781.7, 274.0)">e</text><text xml:space="preserve" font-family="Helvetica-Bold" font-weight="bold" font-size="30.0" fill="#FEFFFF" transform="matrix(1.00, 0.00, -0.00, -1.00, 798.4, 274.0)">n</text><text xml:space="preserve" font-family="Helvetica-Bold" font-weight="bold" font-size="30.0" fill="#FEFFFF" transform="matrix(1.00, 0.00, -0.00, -1.00, 816.7, 274.0)">a</text><text xml:space="preserve" font-family="Helvetica-Bold" font-weight="bold" font-size="30.0" fill="#FEFFFF" transform="matrix(1.00, 0.00, -0.00, -1.00, 833.4, 274.0)">l</text><text xml:space="preserve" font-family="Helvetica-Bold" font-weight="bold" font-size="30.0" fill="#FEFFFF" transform="matrix(1.00, 0.00, -0.00, -1.00, 841.7, 274.0)">t</text><text xml:space="preserve" font-family="Helvetica-Bold" font-weight="bold" font-size="30.0" fill="#FEFFFF" transform="matrix(1.00, 0.00, -0.00, -1.00, 851.7, 274.0)">y</text><text xml:space="preserve" font-family="Helvetica-Bold" font-weight="bold" font-size="30.0" fill="#FEFFFF" transform="matrix(1.00, 0.00, -0.00, -1.00, 868.4, 274.0)"> </text><text xml:space="preserve" font-family="Helvetica-Bold" font-weight="bold" font-size="30.0" fill="#FEFFFF" transform="matrix(1.00, 0.00, -0.00, -1.00, 876.7, 274.0)">f</text><text xml:space="preserve" font-family="Helvetica-Bold" font-weight="bold" font-size="30.0" fill="#FEFFFF" transform="matrix(1.00, 0.00, -0.00, -1.00, 886.7, 274.0)">r</text><text xml:space="preserve" font-family="Helvetica-Bold" font-weight="bold" font-size="30.0" fill="#FEFFFF" transform="matrix(1.00, 0.00, -0.00, -1.00, 898.4, 274.0)">o</text><text xml:space="preserve" font-family="Helvetica-Bold" font-weight="bold" font-size="30.0" fill="#FEFFFF" transform="matrix(1.00, 0.00, -0.00, -1.00, 916.7, 274.0)">m</text><text xml:space="preserve" font-family="Helvetica-Bold" font-weight="bold" font-size="30.0" fill="#FEFFFF" transform="matrix(1.00, 0.00, -0.00, -1.00, 943.4, 274.0)"> </text><text xml:space="preserve" font-family="Helvetica-Bold" font-weight="bold" font-size="30.0" fill="#FEFFFF" transform="matrix(1.00, 0.00, -0.00, -1.00, 951.7, 274.0)">t</text><text xml:space="preserve" font-family="Helvetica-Bold" font-weight="bold" font-size="30.0" fill="#FEFFFF" transform="matrix(1.00, 0.00, -0.00, -1.00, 961.7, 274.0)">h</text><text xml:space="preserve" font-family="Helvetica-Bold" font-weight="bold" font-size="30.0" fill="#FEFFFF" transform="matrix(1.00, 0.00, -0.00, -1.00, 980.0, 274.0)">e</text><text xml:space="preserve" font-family="Helvetica-Bold" font-weight="bold" font-size="30.0" fill="#FEFFFF" transform="matrix(1.00, 0.00, -0.00, -1.00, 996.7, 274.0)"> </text><text xml:space="preserve" font-family="Helvetica-Bold" font-weight="bold" font-size="30.0" fill="#FEFFFF" transform="matrix(1.00, 0.00, -0.00, -1.00, 635.0, 238.0)">m</text><text xml:space="preserve" font-family="Helvetica-Bold" font-weight="bold" font-size="30.0" fill="#FEFFFF" transform="matrix(1.00, 0.00, -0.00, -1.00, 661.7, 238.0)">a</text><text xml:space="preserve" font-family="Helvetica-Bold" font-weight="bold" font-size="30.0" fill="#FEFFFF" transform="matrix(1.00, 0.00, -0.00, -1.00, 678.4, 238.0)">t</text><text xml:space="preserve" font-family="Helvetica-Bold" font-weight="bold" font-size="30.0" fill="#FEFFFF" transform="matrix(1.00, 0.00, -0.00, -1.00, 688.4, 238.0)">h</text><text xml:space="preserve" font-family="Helvetica-Bold" font-weight="bold" font-size="30.0" fill="#FEFFFF" transform="matrix(1.00, 0.00, -0.00, -1.00, 706.7, 238.0)"> </text><text xml:space="preserve" font-family="Helvetica-Bold" font-weight="bold" font-size="30.0" fill="#FEFFFF" transform="matrix(1.00, 0.00, -0.00, -1.00, 715.0, 238.0)">t</text><text xml:space="preserve" font-family="Helvetica-Bold" font-weight="bold" font-size="30.0" fill="#FEFFFF" transform="matrix(1.00, 0.00, -0.00, -1.00, 725.0, 238.0)">e</text><text xml:space="preserve" font-family="Helvetica-Bold" font-weight="bold" font-size="30.0" fill="#FEFFFF" transform="matrix(1.00, 0.00, -0.00, -1.00, 741.7, 238.0)">a</text><text xml:space="preserve" font-family="Helvetica-Bold" font-weight="bold" font-size="30.0" fill="#FEFFFF" transform="matrix(1.00, 0.00, -0.00, -1.00, 758.4, 238.0)">c</text><text xml:space="preserve" font-family="Helvetica-Bold" font-weight="bold" font-size="30.0" fill="#FEFFFF" transform="matrix(1.00, 0.00, -0.00, -1.00, 775.1, 238.0)">h</text><text xml:space="preserve" font-family="Helvetica-Bold" font-weight="bold" font-size="30.0" fill="#FEFFFF" transform="matrix(1.00, 0.00, -0.00, -1.00, 793.4, 238.0)">e</text><text xml:space="preserve" font-family="Helvetica-Bold" font-weight="bold" font-size="30.0" fill="#FEFFFF" transform="matrix(1.00, 0.00, -0.00, -1.00, 810.1, 238.0)">r</text><text xml:space="preserve" font-family="Helvetica-Bold" font-weight="bold" font-size="30.0" fill="#FEFFFF" transform="matrix(1.00, 0.00, -0.00, -1.00, 647.0, 147.0)">I</text><text xml:space="preserve" font-family="Helvetica-Bold" font-weight="bold" font-size="30.0" fill="#FEFFFF" transform="matrix(1.00, 0.00, -0.00, -1.00, 655.3, 147.0)"> </text><text xml:space="preserve" font-family="Helvetica-Bold" font-weight="bold" font-size="30.0" fill="#FEFFFF" transform="matrix(1.00, 0.00, -0.00, -1.00, 663.7, 147.0)">a</text><text xml:space="preserve" font-family="Helvetica-Bold" font-weight="bold" font-size="30.0" fill="#FEFFFF" transform="matrix(1.00, 0.00, -0.00, -1.00, 680.3, 147.0)">m</text><text xml:space="preserve" font-family="Helvetica-Bold" font-weight="bold" font-size="30.0" fill="#FEFFFF" transform="matrix(1.00, 0.00, -0.00, -1.00, 707.0, 147.0)"> </text><text xml:space="preserve" font-family="Helvetica-Bold" font-weight="bold" font-size="30.0" fill="#FEFFFF" transform="matrix(1.00, 0.00, -0.00, -1.00, 715.3, 147.0)">r</text><text xml:space="preserve" font-family="Helvetica-Bold" font-weight="bold" font-size="30.0" fill="#FEFFFF" transform="matrix(1.00, 0.00, -0.00, -1.00, 727.0, 147.0)">u</text><text xml:space="preserve" font-family="Helvetica-Bold" font-weight="bold" font-size="30.0" fill="#FEFFFF" transform="matrix(1.00, 0.00, -0.00, -1.00, 745.3, 147.0)">n</text><text xml:space="preserve" font-family="Helvetica-Bold" font-weight="bold" font-size="30.0" fill="#FEFFFF" transform="matrix(1.00, 0.00, -0.00, -1.00, 763.6, 147.0)">n</text><text xml:space="preserve" font-family="Helvetica-Bold" font-weight="bold" font-size="30.0" fill="#FEFFFF" transform="matrix(1.00, 0.00, -0.00, -1.00, 782.0, 147.0)">i</text><text xml:space="preserve" font-family="Helvetica-Bold" font-weight="bold" font-size="30.0" fill="#FEFFFF" transform="matrix(1.00, 0.00, -0.00, -1.00, 790.3, 147.0)">n</text><text xml:space="preserve" font-family="Helvetica-Bold" font-weight="bold" font-size="30.0" fill="#FEFFFF" transform="matrix(1.00, 0.00, -0.00, -1.00, 808.6, 147.0)">g</text><text xml:space="preserve" font-family="Helvetica-Bold" font-weight="bold" font-size="30.0" fill="#FEFFFF" transform="matrix(1.00, 0.00, -0.00, -1.00, 826.9, 147.0)"> </text><text xml:space="preserve" font-family="Helvetica-Bold" font-weight="bold" font-size="30.0" fill="#FEFFFF" transform="matrix(1.00, 0.00, -0.00, -1.00, 835.3, 147.0)">b</text><text xml:space="preserve" font-family="Helvetica-Bold" font-weight="bold" font-size="30.0" fill="#FEFFFF" transform="matrix(1.00, 0.00, -0.00, -1.00, 853.6, 147.0)">e</text><text xml:space="preserve" font-family="Helvetica-Bold" font-weight="bold" font-size="30.0" fill="#FEFFFF" transform="matrix(1.00, 0.00, -0.00, -1.00, 870.3, 147.0)">c</text><text xml:space="preserve" font-family="Helvetica-Bold" font-weight="bold" font-size="30.0" fill="#FEFFFF" transform="matrix(1.00, 0.00, -0.00, -1.00, 886.9, 147.0)">a</text><text xml:space="preserve" font-family="Helvetica-Bold" font-weight="bold" font-size="30.0" fill="#FEFFFF" transform="matrix(1.00, 0.00, -0.00, -1.00, 903.6, 147.0)">u</text><text xml:space="preserve" font-family="Helvetica-Bold" font-weight="bold" font-size="30.0" fill="#FEFFFF" transform="matrix(1.00, 0.00, -0.00, -1.00, 921.9, 147.0)">s</text><text xml:space="preserve" font-family="Helvetica-Bold" font-weight="bold" font-size="30.0" fill="#FEFFFF" transform="matrix(1.00, 0.00, -0.00, -1.00, 938.6, 147.0)">e</text><text xml:space="preserve" font-family="Helvetica-Bold" font-weight="bold" font-size="30.0" fill="#FEFFFF" transform="matrix(1.00, 0.00, -0.00, -1.00, 955.3, 147.0)"> </text><text xml:space="preserve" font-family="Helvetica-Bold" font-weight="bold" font-size="30.0" fill="#FEFFFF" transform="matrix(1.00, 0.00, -0.00, -1.00, 963.6, 147.0)">I</text><text xml:space="preserve" font-family="Helvetica-Bold" font-weight="bold" font-size="30.0" fill="#FEFFFF" transform="matrix(1.00, 0.00, -0.00, -1.00, 971.9, 147.0)"> </text><text xml:space="preserve" font-family="Helvetica-Bold" font-weight="bold" font-size="30.0" fill="#FEFFFF" transform="matrix(1.00, 0.00, -0.00, -1.00, 647.0, 111.0)">w</text><text xml:space="preserve" font-family="Helvetica-Bold" font-weight="bold" font-size="30.0" fill="#FEFFFF" transform="matrix(1.00, 0.00, -0.00, -1.00, 670.3, 111.0)">a</text><text xml:space="preserve" font-family="Helvetica-Bold" font-weight="bold" font-size="30.0" fill="#FEFFFF" transform="matrix(1.00, 0.00, -0.00, -1.00, 687.0, 111.0)">n</text><text xml:space="preserve" font-family="Helvetica-Bold" font-weight="bold" font-size="30.0" fill="#FEFFFF" transform="matrix(1.00, 0.00, -0.00, -1.00, 705.3, 111.0)">t</text><text xml:space="preserve" font-family="Helvetica-Bold" font-weight="bold" font-size="30.0" fill="#FEFFFF" transform="matrix(1.00, 0.00, -0.00, -1.00, 715.3, 111.0)"> </text><text xml:space="preserve" font-family="Helvetica-Bold" font-weight="bold" font-size="30.0" fill="#FEFFFF" transform="matrix(1.00, 0.00, -0.00, -1.00, 723.7, 111.0)">t</text><text xml:space="preserve" font-family="Helvetica-Bold" font-weight="bold" font-size="30.0" fill="#FEFFFF" transform="matrix(1.00, 0.00, -0.00, -1.00, 733.6, 111.0)">o</text><text xml:space="preserve" font-family="Helvetica-Bold" font-weight="bold" font-size="30.0" fill="#FEFFFF" transform="matrix(1.00, 0.00, -0.00, -1.00, 752.0, 111.0)"> </text><text xml:space="preserve" font-family="Helvetica-Bold" font-weight="bold" font-size="30.0" fill="#FEFFFF" transform="matrix(1.00, 0.00, -0.00, -1.00, 760.3, 111.0)">d</text><text xml:space="preserve" font-family="Helvetica-Bold" font-weight="bold" font-size="30.0" fill="#FEFFFF" transform="matrix(1.00, 0.00, -0.00, -1.00, 778.6, 111.0)">o</text><text xml:space="preserve" font-family="Helvetica-Bold" font-weight="bold" font-size="30.0" fill="#FEFFFF" transform="matrix(1.00, 0.00, -0.00, -1.00, 796.9, 111.0)"> </text><text xml:space="preserve" font-family="Helvetica-Bold" font-weight="bold" font-size="30.0" fill="#FEFFFF" transform="matrix(1.00, 0.00, -0.00, -1.00, 805.3, 111.0)">s</text><text xml:space="preserve" font-family="Helvetica-Bold" font-weight="bold" font-size="30.0" fill="#FEFFFF" transform="matrix(1.00, 0.00, -0.00, -1.00, 822.0, 111.0)">o</text><text xml:space="preserve" font-family="Helvetica-Bold" font-weight="bold" font-size="30.0" fill="#FEFFFF" transform="matrix(1.00, 0.00, -0.00, -1.00, 840.3, 111.0)">m</text><text xml:space="preserve" font-family="Helvetica-Bold" font-weight="bold" font-size="30.0" fill="#FEFFFF" transform="matrix(1.00, 0.00, -0.00, -1.00, 867.0, 111.0)">e</text><text xml:space="preserve" font-family="Helvetica-Bold" font-weight="bold" font-size="30.0" fill="#FEFFFF" transform="matrix(1.00, 0.00, -0.00, -1.00, 883.6, 111.0)"> </text><text xml:space="preserve" font-family="Helvetica-Bold" font-weight="bold" font-size="30.0" fill="#FEFFFF" transform="matrix(1.00, 0.00, -0.00, -1.00, 647.0, 75.0)">e</text><text xml:space="preserve" font-family="Helvetica-Bold" font-weight="bold" font-size="30.0" fill="#FEFFFF" transform="matrix(1.00, 0.00, -0.00, -1.00, 663.7, 75.0)">x</text><text xml:space="preserve" font-family="Helvetica-Bold" font-weight="bold" font-size="30.0" fill="#FEFFFF" transform="matrix(1.00, 0.00, -0.00, -1.00, 680.4, 75.0)">e</text><text xml:space="preserve" font-family="Helvetica-Bold" font-weight="bold" font-size="30.0" fill="#FEFFFF" transform="matrix(1.00, 0.00, -0.00, -1.00, 697.1, 75.0)">r</text><text xml:space="preserve" font-family="Helvetica-Bold" font-weight="bold" font-size="30.0" fill="#FEFFFF" transform="matrix(1.00, 0.00, -0.00, -1.00, 708.8, 75.0)">c</text><text xml:space="preserve" font-family="Helvetica-Bold" font-weight="bold" font-size="30.0" fill="#FEFFFF" transform="matrix(1.00, 0.00, -0.00, -1.00, 725.4, 75.0)">i</text><text xml:space="preserve" font-family="Helvetica-Bold" font-weight="bold" font-size="30.0" fill="#FEFFFF" transform="matrix(1.00, 0.00, -0.00, -1.00, 733.8, 75.0)">s</text><text xml:space="preserve" font-family="Helvetica-Bold" font-weight="bold" font-size="30.0" fill="#FEFFFF" transform="matrix(1.00, 0.00, -0.00, -1.00, 750.5, 75.0)">e</text></g></svg>